<?xml version="1.0" standalone="no"?><!DOCTYPE svg PUBLIC "-//W3C//DTD SVG 1.1//EN" "http://www.w3.org/Graphics/SVG/1.1/DTD/svg11.dtd"><svg t="1702376304836" class="icon" viewBox="0 0 1365 1024" version="1.1" xmlns="http://www.w3.org/2000/svg" p-id="6720" xmlns:xlink="http://www.w3.org/1999/xlink" width="266.6015625" height="200"><path d="M1.45 780.397c-10.175 64.255 36.032 101.162 59.627 112.362 23.594 11.178 63.274 0 78.826 0 116.543 11.178 366.759 131.22 678.607 131.22 0 0 504.635 7.445 543.312-360.488 9.194-95.53 4.885-277.458-71.04-286.162-63.956-8.427-102.121 4.074-183.315 20.565-53.909 10.922-189.012 29.973-212.926 44.97-260.99 118.719-403.324 204.372-442.3 217.129-29.44 0-54.975-7.36-62.1-69.973 0-25.706 98.09-87.04 140.137-96.959 152.382-40.192 266.088-57.727 279.442-57.727 19.264 0 441.49-101.589 454.439-111.189 12.949-9.6 26.624-18.986 26.624-52.543 0-15.36-33.813-49.664-72.32-91.455-45.674-49.557-99.945-107.093-140.606-120.789-74.922-38.4-221.78-70.271-350.077-55.786-280.85 31.701-456.103 339.09-471.356 360.424-64.852 90.708-116.543 205.587-143.678 256.296C86.549 669.272 11.712 735.149 1.45 780.397z" fill="#eed0a8" p-id="6721"></path></svg>